<svg id="Layer_1" data-name="Layer 1" xmlns="http://www.w3.org/2000/svg" viewBox="0 0 1053 1073"><defs><style>.cls-1{fill:#fff;}.cls-2{fill:#0cf;}</style></defs><path class="cls-1" d="M760.67,82.91C876.27,82.91,970,176.63,970,292.24V780.59c0,115.6-93.72,209.32-209.32,209.32H292.43c-115.6,0-209.32-93.72-209.32-209.32V292.24c0-115.61,93.72-209.33,209.32-209.33H760.67m0-83H292.43C131.24-.1.1,131,.1,292.24V780.59c0,161.19,131.14,292.33,292.33,292.33H760.67c161.19,0,292.33-131.14,292.33-292.33V292.24C1053,131,921.86-.1,760.67-.1Z"/><path class="cls-2" d="M461.51,989.91H292.43c-115.6,0-209.32-93.72-209.32-209.32V292.24c0-115.61,93.72-209.33,209.32-209.33H617.89Z"/><path class="cls-1" d="M869,452.32a304.65,304.65,0,0,0-5.7-50.11,222.7,222.7,0,0,0-15.37-46.3A146.65,146.65,0,0,0,821,316.21,130.42,130.42,0,0,0,780.71,289c-15.47-6.75-33.72-10.46-54.36-11a175.57,175.57,0,0,0-45.67,5,163.37,163.37,0,0,0-40.77,16.21q-5.88,3.24-11.61,7.12l6.47-37.58-95.9-16.51L428.51,893.05l95.91,16.51L560.5,700c1,.92,2,1.83,3.1,2.72a129.2,129.2,0,0,0,20.32,14.19,148.56,148.56,0,0,0,38,15.12,187.47,187.47,0,0,0,41.21,5.38,175,175,0,0,0,52.54-6.88A171.14,171.14,0,0,0,760.29,710a181,181,0,0,0,46.82-43.9,261.44,261.44,0,0,0,32.44-56.29A315.49,315.49,0,0,0,856.72,561h0a360.45,360.45,0,0,0,9.47-50.48l.76-8A345.49,345.49,0,0,0,869,452.32Zm-93.35,48-.73,7.8a273.48,273.48,0,0,1-7,34.42,251.63,251.63,0,0,1-11.75,33.8,214.58,214.58,0,0,1-19.94,35,108,108,0,0,1-26.83,26.95,96.84,96.84,0,0,1-28.59,14.63,106.52,106.52,0,0,1-34.55,4.79,113.26,113.26,0,0,1-25.41-4.1,68.34,68.34,0,0,1-20-9.3A75.71,75.71,0,0,1,584.69,629a90.18,90.18,0,0,1-9.41-14.78l35.57-206.59c4.09-5,8.37-9.85,12.77-14.34a110.05,110.05,0,0,1,19.12-15.61,95.33,95.33,0,0,1,27-13.39,98.84,98.84,0,0,1,31.66-4.21c11.76.23,21.85,2.27,30,6a67.72,67.72,0,0,1,20.8,14.79,92.52,92.52,0,0,1,11.42,17.56A130.18,130.18,0,0,1,772,420.69a174.56,174.56,0,0,1,5.33,39.07h0A283.8,283.8,0,0,1,775.61,500.31Z"/><rect class="cls-1" x="229.61" y="51.54" width="97.31" height="990.76" transform="translate(96.86 -39.29) rotate(9.77)"/></svg>