<svg id="Layer_1" data-name="Layer 1" xmlns="http://www.w3.org/2000/svg" viewBox="0 0 9570 1317"><defs><style>.cls-1{fill:#0cf;}.cls-2{fill:#fff;}</style></defs><path class="cls-1" d="M4711.43-.18H645.94C289.69-.18-.14,289.65-.14,645.9v25.4c0,356.25,289.83,646.08,646.08,646.08H4429.09Z"/><path class="cls-2" d="M8923.61,85.91c309.25,0,559.94,250.69,559.94,559.94v25.4c0,309.25-250.69,559.94-559.94,559.94H645.94C336.69,1231.19,86,980.5,86,671.25v-25.4C86,336.6,336.69,85.91,645.94,85.91H8923.61m0-86.14H645.94C289.69-.23-.14,289.6-.14,645.85v25.4c0,356.25,289.83,646.08,646.08,646.08H8923.61c356.25,0,646.08-289.83,646.08-646.08v-25.4c0-356.25-289.83-646.08-646.08-646.08Z"/><path class="cls-2" d="M615.52,410.44h100l4.09,50.43a167.64,167.64,0,0,1,21.81-22.26,144.79,144.79,0,0,1,25.44-17.27,164.66,164.66,0,0,1,39.07-14.76,190.84,190.84,0,0,1,45.43-5.22q47.25,0,83.37,18.17a169.15,169.15,0,0,1,60.65,51.34q24.07,33.17,36.8,79.27t12.72,101.54v9.54q0,53.16-12.49,99t-37,79.06A176.8,176.8,0,0,1,934.91,892Q899,911.1,852.68,911.1a201.08,201.08,0,0,1-48.39-5.46,147.29,147.29,0,0,1-61.56-30.43,172.39,172.39,0,0,1-18.62-17.72V1091H615.52ZM929.68,589.22q-6.58-29.31-20.21-51.11a105.65,105.65,0,0,0-35.89-34.53q-21.81-12.72-52.25-12.73A129.11,129.11,0,0,0,790,494.49a94.66,94.66,0,0,0-25.9,10.45,87,87,0,0,0-22.94,18.17,123.44,123.44,0,0,0-17,24.54V766.17a109.67,109.67,0,0,0,15.44,23.17,99.76,99.76,0,0,0,20.9,18.17,114.67,114.67,0,0,0,27.71,11.59,126.28,126.28,0,0,0,34.08,4.32q30.43,0,52-12.95a103.24,103.24,0,0,0,35.21-35.21q14.07-22.71,20.44-52a291.89,291.89,0,0,0,6.36-62v-9.54A284.35,284.35,0,0,0,929.68,589.22Z"/><path class="cls-2" d="M1500.39,405q24.75,3.64,38.84,8.63l-15.45,107.22a484,484,0,0,0-49.29-8.18,435.46,435.46,0,0,0-48.38-2.72q-27.27,0-49.07,5.45a120.51,120.51,0,0,0-38.62,16.81,108.17,108.17,0,0,0-30.89,27.71,162.9,162.9,0,0,0-21.35,38.62V902H1177.59V410.44h101.77l4.55,68.15.45,11.36q30-41.34,72-65t92.91-23.62A352.11,352.11,0,0,1,1500.39,405Z"/><path class="cls-2" d="M2446.68,410.44v499.3q0,48.6-13.63,84.27t-39.53,59.29q-25.89,23.61-63.14,35.44T2245,1100.55q-12.72,0-25.21-.46t-24.76-1.81q-9.09-.91-18.4-2.28t-18.85-3.18l6.36-88.59q6.34,1.37,16.81,2.5t21.8,1.59q10.9.9,20.9,1.14t15.45.22a145.18,145.18,0,0,0,38.62-5A79.77,79.77,0,0,0,2309,988.33q13.17-11.82,20.9-30.89t7.73-47.7V500.85H2196.81V410.44ZM2344,240.75q16.35-17.48,46.34-17.49,30.42,0,47.24,17t16.81,42.93q0,25.45-16.81,42.25t-47.24,16.81q-29.55,0-46.12-16.81t-16.58-42.25Q2327.65,258.26,2344,240.75Z"/><path class="cls-2" d="M2746.65,892.93q-45.21-18.16-77.46-50.43a219.43,219.43,0,0,1-49.75-75.19Q2602,723.93,2602,673.49V654.86q0-57.69,18.18-104.49t50-80a222.4,222.4,0,0,1,73.83-51.11q42-17.94,89.72-17.94,53.16,0,94,17.94t68.6,49.75q27.7,32.26,41.8,76.78t14.08,97.22v46.79H2711.44v2.28q5,32.26,15.45,54.06a132.62,132.62,0,0,0,28.62,39.07,127.23,127.23,0,0,0,42.93,28.17q24.76,10,54.3,10,40.43,0,75.41-15.68t57.7-44.75L3044,819.32q-24.54,35.45-75.2,63.61T2846.38,911.1Q2791.86,911.1,2746.65,892.93Zm43.62-395a110.73,110.73,0,0,0-35.21,23.85,139.05,139.05,0,0,0-25.9,38.16q-10.45,22.26-15.45,50.43H2945v-7.27a123,123,0,0,0-7.72-42.48,114.72,114.72,0,0,0-21.81-37q-13.62-15.45-34.3-24.76t-47.93-9.32A108.57,108.57,0,0,0,2790.27,497.9Z"/><path class="cls-2" d="M3427.06,817.74a107.89,107.89,0,0,0,33.39-17.5,88.48,88.48,0,0,0,22.49-26.8,70.12,70.12,0,0,0,8.41-34.07h102.22a139.13,139.13,0,0,1-16.13,67.46,171.66,171.66,0,0,1-44.75,54.29,219.46,219.46,0,0,1-65.65,37,227.29,227.29,0,0,1-77.91,13.4q-56.8,0-99.27-19.76t-70.65-53.38q-28.62-33.61-43.16-78.37t-14.54-95.64V648.5q0-50.41,14.31-95.4t42.94-78.6q28.62-33.62,71.1-53.38t98.81-19.76q44.52,0,82.46,13.62t65.19,38.17a172.48,172.48,0,0,1,42.48,58.61q15.22,34.07,14.77,75H3491.35a95.71,95.71,0,0,0-7.5-37.7,92.88,92.88,0,0,0-21.13-30.9,105.92,105.92,0,0,0-33.39-20.89,110.9,110.9,0,0,0-41.57-7.73q-34.07,0-56.56,13.86a104.37,104.37,0,0,0-35.66,36.12q-14.09,22.26-19.77,50.88a297.79,297.79,0,0,0-5.68,58.15v15.9a303.54,303.54,0,0,0,5.68,58.84q5.68,28.86,19.31,50.65A100.67,100.67,0,0,0,3331,810.24q22.71,13.62,56.79,13.63A126.21,126.21,0,0,0,3427.06,817.74Z"/><path class="cls-2" d="M3903.68,410.44h184.91v81.32H3903.68V726.65q0,27.26,6.59,45.66t18.4,28.84a67.28,67.28,0,0,0,28.17,15.45,133.71,133.71,0,0,0,35.89,4.54q14.08,0,29.07-1.36t29.08-3.63q13.63-1.81,25.67-4.32t20.22-4.32l11.81,75A127.24,127.24,0,0,1,4080.19,895a313.56,313.56,0,0,1-35.67,8.86q-19.08,3.63-39.75,5.68t-41.12,2q-37.26,0-68.37-10.22a135.43,135.43,0,0,1-53.39-32q-22.26-21.34-34.75-55t-12.49-80.87V491.76h-119V410.44h119V290.5h109Z"/><path class="cls-2" d="M5013,410.44H5113l4.09,50.43a167,167,0,0,1,21.81-22.26,144.79,144.79,0,0,1,25.44-17.27,164.66,164.66,0,0,1,39.07-14.76,190.71,190.71,0,0,1,45.43-5.22q47.25,0,83.37,18.17a169.23,169.23,0,0,1,60.65,51.34q24.08,33.17,36.8,79.27t12.72,101.54v9.54q0,53.16-12.5,99t-37,79.06A176.83,176.83,0,0,1,5332.4,892q-35.89,19.08-82.23,19.08a200.94,200.94,0,0,1-48.38-5.46,147.29,147.29,0,0,1-61.56-30.43,171.57,171.57,0,0,1-18.63-17.72V1091H5013Zm314.16,178.78q-6.59-29.31-20.22-51.11a105.65,105.65,0,0,0-35.89-34.53q-21.81-12.72-52.25-12.73a129,129,0,0,0-31.34,3.64,94.53,94.53,0,0,0-25.9,10.45,86.79,86.79,0,0,0-22.94,18.17,123.48,123.48,0,0,0-17,24.54V766.17a109.71,109.71,0,0,0,15.45,23.17,99.51,99.51,0,0,0,20.9,18.17,114.33,114.33,0,0,0,27.71,11.59,126.21,126.21,0,0,0,34.07,4.32q30.44,0,52-12.95A103.15,103.15,0,0,0,5307,775.26q14.09-22.71,20.45-52a292.54,292.54,0,0,0,6.36-62v-9.54A284.35,284.35,0,0,0,5327.18,589.22Z"/><path class="cls-2" d="M5897.88,405q24.77,3.64,38.84,8.63l-15.44,107.22a484.48,484.48,0,0,0-49.29-8.18,435.77,435.77,0,0,0-48.39-2.72q-27.26,0-49.06,5.45a120.42,120.42,0,0,0-38.62,16.81,108.21,108.21,0,0,0-30.9,27.71,162.9,162.9,0,0,0-21.35,38.62V902H5575.09V410.44h101.77l4.54,68.15.46,11.36q30-41.34,72-65t92.91-23.62A352,352,0,0,1,5897.88,405Z"/><path class="cls-2" d="M6637.16,550.6q13.62-46.11,39.52-79.28a182.6,182.6,0,0,1,62.47-51.56q36.57-18.4,82.46-18.4,27.26,0,49.52,5.67a150.45,150.45,0,0,1,40.43,16.59,134.82,134.82,0,0,1,22.26,16.12A190.68,190.68,0,0,1,6953.36,460l4.54-49.52h98.59V888.38q0,49.51-16.13,87.91t-45.2,65.2q-29.55,26.34-70.65,40.21t-90.64,13.85A258.72,258.72,0,0,1,6788,1091a281,281,0,0,1-50-14.09,231.17,231.17,0,0,1-47.7-25,162.78,162.78,0,0,1-39.07-37.25l51.34-65.88A172.76,172.76,0,0,0,6731,976.29a164.33,164.33,0,0,0,31.12,18.86,152.32,152.32,0,0,0,32.26,10.67,162.19,162.19,0,0,0,33.16,3.41q29.07,0,51.57-8.18a106.69,106.69,0,0,0,38.39-23.62q14.53-15,22.49-36.8t7.95-49.52V857a251.59,251.59,0,0,1-19.77,18.62,128.7,128.7,0,0,1-22,15A153.2,153.2,0,0,1,6867,905.87a194.93,194.93,0,0,1-46.34,5.23q-45.44,0-81.78-18.85a186,186,0,0,1-62.24-52.48q-25.44-33.15-39.3-78.82t-13.85-98.82v-9.54Q6623.53,596.72,6637.16,550.6Zm102,173.32q6.59,29.08,21.12,50.43a102.2,102.2,0,0,0,35.9,34.75q21.8,12.51,51.79,12.5a130.66,130.66,0,0,0,33.84-4.09,109.2,109.2,0,0,0,27.49-11.36,98.9,98.9,0,0,0,21.81-18.62,137.11,137.11,0,0,0,16.81-24.08V548.1a114.55,114.55,0,0,0-17.49-24.53,104.11,104.11,0,0,0-23.4-18.63,120.71,120.71,0,0,0-26.35-10.22,123.93,123.93,0,0,0-31.8-3.87q-30.45,0-52.25,12.73a104.17,104.17,0,0,0-35.89,35q-14.55,22.26-21.36,51.57a275.34,275.34,0,0,0-6.81,62.46v9.54A279.14,279.14,0,0,0,6739.15,723.92Z"/><path class="cls-2" d="M7513.38,405q24.75,3.64,38.84,8.63l-15.44,107.22a484.48,484.48,0,0,0-49.29-8.18,435.73,435.73,0,0,0-48.38-2.72q-27.27,0-49.07,5.45a120.32,120.32,0,0,0-38.62,16.81,108.21,108.21,0,0,0-30.9,27.71,163.25,163.25,0,0,0-21.35,38.62V902H7190.59V410.44h101.77l4.54,68.15.45,11.36q30-41.34,72-65t92.91-23.62A352,352,0,0,1,7513.38,405Z"/><path class="cls-2" d="M7766,892.93q-45.21-18.16-77.46-50.43a219.43,219.43,0,0,1-49.75-75.19q-17.49-43.38-17.48-93.82V654.86q0-57.69,18.17-104.49t50-80a222.4,222.4,0,0,1,73.83-51.11q42-17.94,89.72-17.94,53.16,0,94.05,17.94t68.6,49.75q27.71,32.26,41.8,76.78t14.08,97.22v46.79H7730.77v2.28q5,32.26,15.45,54.06a132.44,132.44,0,0,0,28.62,39.07,127.23,127.23,0,0,0,42.93,28.17q24.76,10,54.29,10,40.44,0,75.42-15.68t57.7-44.75l58.15,56.33q-24.54,35.45-75.19,63.61T7865.7,911.1Q7811.19,911.1,7766,892.93Zm43.62-395a110.73,110.73,0,0,0-35.21,23.85,138.83,138.83,0,0,0-25.9,38.16Q7738,582.17,7733,610.34h231.25v-7.27a123,123,0,0,0-7.72-42.48,114.72,114.72,0,0,0-21.81-37,99.49,99.49,0,0,0-34.3-24.76q-20.69-9.31-47.93-9.32A108.57,108.57,0,0,0,7809.6,497.9Z"/><path class="cls-2" d="M8486.63,746.18q-5.68-10-18.86-19.08-14.09-8.18-36.79-15.45T8374.19,698a549.82,549.82,0,0,1-77.92-21.35q-35.22-12.72-60.65-30.89-25-17.26-39.07-40.89t-14.08-55a120.29,120.29,0,0,1,14.3-57q14.32-27,41.12-47.48,26.35-20.44,63.83-32.25t83.37-11.81q49.06,0,88.14,12t66.33,32.94q26.81,20.91,41.34,49.52a134.56,134.56,0,0,1,14.54,61.79H8486.85a62.49,62.49,0,0,0-5.67-26.12A69.46,69.46,0,0,0,8464.6,509q-12.73-11.8-32.72-18.86t-46.79-7q-24.54,0-42.93,5.23t-30.22,14.31A54.67,54.67,0,0,0,8294.23,522a49.21,49.21,0,0,0-5.91,23.39,51.59,51.59,0,0,0,5,23q5,10.21,17.72,17.94,11.8,8.18,32.94,15t53.38,12.27a669.11,669.11,0,0,1,82.23,20q37.24,11.82,63.6,29.08,26.34,18.18,40.89,42.7t14.54,58.16q0,32.7-15.22,60t-42.94,46.79q-28.17,19.54-67.23,30.44t-86.78,10.9q-53.16,0-94.27-14.08t-68.83-37.26q-28.17-22.71-42.7-52.24t-14.54-60h105.4q1.36,22.72,12,38.39a82.81,82.81,0,0,0,27,25.21,110.29,110.29,0,0,0,36.35,14.31,198.68,198.68,0,0,0,41.34,4.32q28.17,0,49.29-5.91t33.85-15.9a57.5,57.5,0,0,0,15.67-17.94,47.72,47.72,0,0,0-.45-44.3Z"/><path class="cls-2" d="M9008.46,746.18q-5.68-10-18.85-19.08-14.1-8.18-36.8-15.45T8896,698a550.56,550.56,0,0,1-77.92-21.35q-35.21-12.72-60.65-30.89-25-17.26-39.06-40.89t-14.09-55a120.19,120.19,0,0,1,14.31-57q14.31-27,41.11-47.48,26.36-20.44,63.84-32.25t83.37-11.81q49,0,88.13,12t66.33,32.94q26.81,20.91,41.34,49.52a134.56,134.56,0,0,1,14.54,61.79H9008.69a62.35,62.35,0,0,0-5.68-26.12A69.31,69.31,0,0,0,8986.43,509q-12.74-11.8-32.72-18.86t-46.78-7q-24.54,0-42.94,5.23t-30.22,14.31A54.76,54.76,0,0,0,8816.06,522a49.21,49.21,0,0,0-5.91,23.39,51.59,51.59,0,0,0,5,23q5,10.21,17.72,17.94,11.8,8.18,32.94,15t53.38,12.27a669.11,669.11,0,0,1,82.23,20q37.25,11.82,63.61,29.08,26.34,18.18,40.88,42.7t14.54,58.16q0,32.7-15.22,60t-42.93,46.79q-28.18,19.54-67.24,30.44t-86.77,10.9q-53.16,0-94.28-14.08t-68.83-37.26Q8717,837.5,8702.48,808t-14.54-60h105.4q1.36,22.72,12,38.39a82.78,82.78,0,0,0,27,25.21,110.29,110.29,0,0,0,36.35,14.31,198.77,198.77,0,0,0,41.35,4.32q28.15,0,49.29-5.91t33.85-15.9a57.75,57.75,0,0,0,15.67-17.94,47.76,47.76,0,0,0-.46-44.3Z"/><path class="cls-2" d="M1856.5,501a155.48,155.48,0,1,1-110,45.54,154.5,154.5,0,0,1,110-45.54m0-100h0C1715.39,401,1601,515.39,1601,656.5h0c0,141.11,114.39,255.5,255.5,255.5h0c141.11,0,255.5-114.39,255.5-255.5h0c0-141.11-114.39-255.5-255.5-255.5Z"/><path class="cls-2" d="M6247.5,501a155.48,155.48,0,1,1-110,45.54,154.5,154.5,0,0,1,110-45.54m0-100h0C6106.39,401,5992,515.39,5992,656.5h0c0,141.11,114.39,255.5,255.5,255.5h0c141.11,0,255.5-114.39,255.5-255.5h0c0-141.11-114.39-255.5-255.5-255.5Z"/><rect class="cls-2" x="4107.61" y="603.55" width="924.78" height="110" transform="translate(2968.5 4989.11) rotate(-77.9)"/><rect class="cls-2" x="1393.61" y="603.55" width="924.78" height="110" transform="translate(823.17 2335.36) rotate(-77.9)"/><rect class="cls-2" x="5783.61" y="603.55" width="924.78" height="110" transform="translate(4293.32 6627.91) rotate(-77.9)"/></svg>